<svg xmlns="http://www.w3.org/2000/svg" xmlns:xlink="http://www.w3.org/1999/xlink" width="128" zoomAndPan="magnify" viewBox="0 0 96 95.999999" height="128" preserveAspectRatio="xMidYMid meet" version="1.2"><defs/><g id="dc547d5ce8"><g style="fill:#000000;fill-opacity:1;"><g transform="translate(4.42038, 60.082695)"><path style="stroke:none" d="M 10.84375 -22.734375 L 10.484375 -18.171875 C 10.484375 -18.222656 10.773438 -18.414062 11.359375 -18.75 C 11.941406 -19.09375 12.71875 -19.410156 13.6875 -19.703125 C 14.65625 -19.992188 15.738281 -20.140625 16.9375 -20.140625 C 20.15625 -20.140625 22.707031 -19.222656 24.59375 -17.390625 C 26.476562 -15.566406 27.421875 -13.0625 27.421875 -9.875 C 27.421875 -7.9375 26.90625 -6.175781 25.875 -4.59375 C 24.851562 -3.019531 23.40625 -1.769531 21.53125 -0.84375 C 19.664062 0.0703125 17.503906 0.53125 15.046875 0.53125 C 10.742188 0.53125 7.445312 -0.390625 5.15625 -2.234375 C 2.863281 -4.078125 1.71875 -6.578125 1.71875 -9.734375 L 9.4375 -9.734375 C 9.4375 -8.535156 9.84375 -7.535156 10.65625 -6.734375 C 11.476562 -5.929688 12.632812 -5.53125 14.125 -5.53125 C 15.613281 -5.53125 16.757812 -5.945312 17.5625 -6.78125 C 18.375 -7.613281 18.78125 -8.6875 18.78125 -10 C 18.78125 -11.34375 18.375 -12.429688 17.5625 -13.265625 C 16.757812 -14.097656 15.628906 -14.515625 14.171875 -14.515625 C 13.054688 -14.515625 12.210938 -14.332031 11.640625 -13.96875 C 11.078125 -13.601562 10.671875 -13.257812 10.421875 -12.9375 C 10.171875 -12.613281 10.015625 -12.410156 9.953125 -12.328125 L 3.03125 -13.296875 L 4.296875 -30.1875 L 25.1875 -30.1875 L 25.1875 -22.734375 Z M 10.84375 -22.734375 "/></g></g><g style="fill:#000000;fill-opacity:1;"><g transform="translate(30.350433, 60.082695)"><path style="stroke:none" d="M 24.828125 0 L 12.15625 -14.65625 L 12.15625 0 L 3.25 0 L 3.25 -30.1875 L 11.71875 -30.1875 L 24.390625 -15.3125 L 24.390625 -30.1875 L 33.296875 -30.1875 L 33.296875 0 Z M 24.828125 0 "/></g></g><g style="fill:#000000;fill-opacity:1;"><g transform="translate(62.111138, 60.082695)"><path style="stroke:none" d="M 20.1875 -30.1875 C 22.050781 -30.1875 23.710938 -29.753906 25.171875 -28.890625 C 26.640625 -28.023438 27.78125 -26.835938 28.59375 -25.328125 C 29.414062 -23.828125 29.828125 -22.140625 29.828125 -20.265625 L 29.828125 -19.703125 C 29.828125 -17.828125 29.414062 -16.128906 28.59375 -14.609375 C 27.78125 -13.085938 26.640625 -11.894531 25.171875 -11.03125 C 23.710938 -10.164062 22.050781 -9.734375 20.1875 -9.734375 L 12.9375 -9.734375 L 12.9375 0 L 3.25 0 L 3.25 -30.1875 Z M 12.9375 -16.796875 L 16.9375 -16.796875 C 17.957031 -16.796875 18.722656 -17.0625 19.234375 -17.59375 C 19.742188 -18.125 20 -18.84375 20 -19.75 L 20 -20.09375 C 20 -21.03125 19.742188 -21.753906 19.234375 -22.265625 C 18.722656 -22.773438 17.957031 -23.03125 16.9375 -23.03125 L 12.9375 -23.03125 Z M 12.9375 -16.796875 "/></g></g><path style="fill:none;stroke-width:49;stroke-linecap:butt;stroke-linejoin:miter;stroke:#000000;stroke-opacity:1;stroke-miterlimit:4;" d="M -0.00563823 24.493601 L 319.557742 24.493601 " transform="matrix(0.2743,0,0,0.2743,3.65389,63.62906)"/><path style="fill:none;stroke-width:49;stroke-linecap:butt;stroke-linejoin:miter;stroke:#ff3131;stroke-opacity:1;stroke-miterlimit:4;" d="M -0.00563823 24.498485 L 319.557742 24.498485 " transform="matrix(0.2743,0,0,0.2743,3.65389,66.686315)"/></g></svg>